<?xml version="1.0" encoding="utf-8"?>
<!-- Generator: Adobe Illustrator 22.1.0, SVG Export Plug-In . SVG Version: 6.00 Build 0)  -->
<svg version="1.1" id="Layer_1" xmlns="http://www.w3.org/2000/svg" xmlns:xlink="http://www.w3.org/1999/xlink" x="0px" y="0px"
	 viewBox="0 0 100 100" style="enable-background:new 0 0 100 100;" xml:space="preserve">
<style type="text/css">
	.st0{fill:#231F20;}
</style>
<path class="st0" d="M74.4,31.6c-0.6-1.5-1.2-2.5-2.3-3.6c-1.1-1.1-2.1-1.8-3.6-2.3c-1.1-0.4-2.8-0.9-5.8-1.1
	c-3.3-0.2-4.3-0.2-12.6-0.2s-9.3,0-12.6,0.2c-3,0.1-4.7,0.6-5.8,1.1c-1.5,0.6-2.5,1.2-3.6,2.3c-1.1,1.1-1.8,2.1-2.3,3.6
	c-0.4,1.1-0.9,2.8-1.1,5.8c-0.2,3.3-0.2,4.3-0.2,12.6s0,9.3,0.2,12.6c0.1,3,0.6,4.7,1.1,5.8c0.6,1.5,1.2,2.5,2.3,3.6
	c1.1,1.1,2.1,1.8,3.6,2.3c1.1,0.4,2.8,0.9,5.8,1.1c3.3,0.2,4.3,0.2,12.6,0.2s9.3,0,12.6-0.2c3-0.1,4.7-0.6,5.8-1.1
	c1.5-0.6,2.5-1.2,3.6-2.3c1.1-1.1,1.8-2.1,2.3-3.6c0.4-1.1,0.9-2.8,1.1-5.8c0.2-3.3,0.2-4.3,0.2-12.6s0-9.3-0.2-12.6
	C75.3,34.3,74.8,32.7,74.4,31.6z M50,66c-8.9,0-16-7.2-16-16s7.2-16,16-16s16,7.2,16,16S58.9,66,50,66z M66.7,37.1
	c-2.1,0-3.8-1.7-3.8-3.8c0-2.1,1.7-3.8,3.8-3.8s3.8,1.7,3.8,3.8C70.4,35.4,68.8,37.1,66.7,37.1z M60.4,50c0,5.8-4.7,10.4-10.4,10.4
	S39.6,55.8,39.6,50c0-5.8,4.7-10.4,10.4-10.4S60.4,44.2,60.4,50z M0,0v100h100V0H0z M81.1,62.9c-0.2,3.3-0.7,5.6-1.5,7.6
	c-0.8,2.1-1.9,3.8-3.6,5.5c-1.7,1.7-3.5,2.8-5.5,3.6c-2,0.8-4.3,1.3-7.6,1.5c-3.3,0.2-4.4,0.2-12.9,0.2s-9.6,0-12.9-0.2
	c-3.3-0.2-5.6-0.7-7.6-1.5c-2.1-0.8-3.8-1.9-5.5-3.6c-1.7-1.7-2.8-3.5-3.6-5.5c-0.8-2-1.3-4.3-1.5-7.6c-0.2-3.3-0.2-4.4-0.2-12.9
	c0-8.5,0-9.6,0.2-12.9c0.2-3.3,0.7-5.6,1.5-7.6c0.8-2.1,1.9-3.8,3.6-5.5s3.5-2.8,5.5-3.6c2-0.8,4.3-1.3,7.6-1.5
	c3.3-0.2,4.4-0.2,12.9-0.2s9.6,0,12.9,0.2c3.3,0.2,5.6,0.7,7.6,1.5c2.1,0.8,3.8,1.9,5.5,3.6s2.8,3.5,3.6,5.5c0.8,2,1.3,4.3,1.5,7.6
	c0.2,3.3,0.2,4.4,0.2,12.9S81.2,59.6,81.1,62.9z"/>
</svg>
