<?xml version="1.0" encoding="utf-8"?>
<!-- Generator: Adobe Illustrator 22.1.0, SVG Export Plug-In . SVG Version: 6.00 Build 0)  -->
<svg version="1.1" id="Layer_1" xmlns="http://www.w3.org/2000/svg" xmlns:xlink="http://www.w3.org/1999/xlink" x="0px" y="0px"
	 viewBox="0 0 500 96.4" style="enable-background:new 0 0 500 96.4;" xml:space="preserve">
<style type="text/css">
	.st0{fill:#FFFEF9;}
</style>
<g id="salsa-fuego-logo">
	<polygon id="salsa-fuego-0" class="st0" points="0,84.3 1.7,65.4 29.2,67.1 27.5,55.1 1.7,51.6 1.7,13.8 46.4,6.9 48.2,25.8 
		22.4,29.3 20.6,39.6 48.2,41.3 49.9,86 	"/>
	<path id="salsa-fuego-1" class="st0" d="M64.2,21.8l1.7,15.5L88.3,39v7.5l-32.7,1.7l1.7,36.1l49.9,1.7l-1.7-64.2L64.2,21.8
		L64.2,21.8z M89.4,71.1l-17.8,1.7l1.7-12l17.8-1.7L89.4,71.1z"/>
	<polygon id="salsa-fuego-2" class="st0" points="114.1,1.8 114.1,84.3 131.3,84.3 133,0 	"/>
	<polygon id="salsa-fuego-3" class="st0" points="140.5,86 140.5,70.6 164.6,68.8 162.8,61.4 140.5,57.9 138.8,24.7 178.3,21.3 
		180,38.5 157.7,40.2 156,47.6 178.3,47.6 181.8,84.3 	"/>
	<path id="salsa-fuego-4" class="st0" d="M195,23.5l3.4,17.2l20.6,1.7l1.7,7.5l-34.4-1.7l3.4,36.1l46.4,1.7l1.7-60.8L195,23.5z
		 M221.3,74l-17.2-1.7l-1.7-12l17.2,1.7L221.3,74z"/>
	<polygon id="salsa-fuego-5" class="st0" points="294.7,8.6 253.4,12.1 251.7,86 270.6,84.3 272.4,55.1 284.4,53.4 287.8,39.6 
		272.4,41.3 274.1,29.3 293,27.6 	"/>
	<polygon id="salsa-fuego-6" class="st0" points="299.3,24.1 301,87.8 338.9,84.3 340.6,24.1 325.1,25.8 323.4,68.8 314.8,70.6 
		314.8,22.4 	"/>
	<path id="salsa-fuego-7" class="st0" d="M394.5,86l1.7-14.3L363.5,70v-7.5l32.7-1.7l-1.7-36.7l-46.4,1.7L346.4,86H394.5z M363.5,39
		l17.2-1.7L379,48.8l-17.2,1.7L363.5,39z"/>
	<path id="salsa-fuego-8" class="st0" d="M448.4,94.6l3.4-68.8l-49.9,1.7l1.7,36.1l29.2,1.7v13.9L407,80.9l1.7,15.5L448.4,94.6z
		 M436.4,53.4l-17.2-1.7l-1.7-12l17.2,1.7L436.4,53.4z"/>
	<path id="salsa-fuego-9" class="st0" d="M458.7,22.4l1.7,63.6l39.6,1.7V25.8L458.7,22.4z M486.8,70.6l-11.5,1.7l-1.7-32.7l11.5,1.7
		L486.8,70.6z"/>
</g>
</svg>
