<?xml version="1.0" encoding="utf-8"?>
<!-- Generator: Adobe Illustrator 22.1.0, SVG Export Plug-In . SVG Version: 6.00 Build 0)  -->
<svg version="1.1" id="Layer_1" xmlns="http://www.w3.org/2000/svg" xmlns:xlink="http://www.w3.org/1999/xlink" x="0px" y="0px"
	 viewBox="0 0 100 81.7" style="enable-background:new 0 0 100 81.7;" xml:space="preserve">
<style type="text/css">
	.st0{fill:none;}
	.st1{fill:#E0BA7E;}
	.st2{fill:#333132;}
	.st3{fill:#007660;}
	.st4{fill:#B13029;}
	.st5{clip-path:url(#SVGID_2_);}
	.st6{fill:#D86931;}
	.st7{clip-path:url(#SVGID_4_);}
	.st8{clip-path:url(#SVGID_6_);}
	.st9{clip-path:url(#SVGID_8_);}
</style>
<g>
	<g>
		<path class="st0" d="M50,81.5c-3.1,0-5.9-0.8-8.5-2.5c-0.5-0.3-1.1-0.7-1.6-1.2c-2.3,0-4.4-1.1-5.6-2.9c-0.7-1-1-2.1-1.1-3.2
			c-8.6-1.3-15.9-3.4-21.3-6.3c-5.8-3.1-9-6.9-9-11L0,37.4l0.7-0.5C4,34.3,8.2,32,13.1,30.1c5.4-2,11.6-3.6,18.5-4.6
			c0.4-4.8,1.5-11.2,4.2-16.3C39.1,3.1,43.8,0,50,0s10.9,3.1,14.2,9.3c2.7,5.2,3.8,11.5,4.2,16.3c6.9,1,13.1,2.5,18.5,4.6l0,0
			c5,1.9,9.2,4.1,12.5,6.8l0.7,0.5l-2.8,17c-0.1,4.1-3.2,7.8-9,11c-5.4,2.9-12.7,5-21.3,6.3c-0.1,1.1-0.4,2.2-1.1,3.2
			c-1.2,1.8-3.3,2.9-5.6,2.9c-0.5,0.4-1.1,0.8-1.6,1.2C55.9,80.6,53.1,81.5,50,81.5z M40.8,74.9l0.5,0.4c0.6,0.5,1.1,0.9,1.7,1.3
			c2.1,1.3,4.5,2,7,2s4.9-0.7,7-2c0.6-0.4,1.1-0.8,1.7-1.3l0.5-0.4l0.6,0c0.1,0,0.2,0,0.3,0c1.4,0,2.7-0.6,3.4-1.7
			c0.7-1,0.8-2.3,0.3-3.6l-0.2-0.6l0.3-0.6c0.2-0.3,0.3-0.7,0.5-1.1l1.2-2.7l1.4,2.6c0.2,0.4,0.4,0.9,0.6,1.3
			c15.9-2.5,26.9-8.4,26.9-14.4v-0.1l2.6-15.6c-3-2.2-6.7-4.2-11-5.8l0,0c-5.5-2.1-11.9-3.6-19-4.6l-1.2-0.2l-0.1-1.2
			C64.2,6,55.2,2.9,50,2.9S35.8,6,34.4,26.9l-0.1,1.2l-1.2,0.2c-7.1,1-13.5,2.5-19,4.6c-4.4,1.6-8.1,3.6-11,5.8l2.6,15.6v0.1
			c0,6.1,11,11.9,26.9,14.4c0.2-0.4,0.3-0.9,0.6-1.3l1.4-2.6l1.2,2.7c0.2,0.4,0.3,0.7,0.5,1.1l0.3,0.6l-0.2,0.6
			c-0.5,1.3-0.4,2.6,0.3,3.6c0.7,1.1,2,1.7,3.4,1.7c0.1,0,0.2,0,0.3,0L40.8,74.9z"/>
	</g>
	<g>
		<path class="st0" d="M86.4,31.5c-5.6-2.1-12.2-3.7-19.4-4.6C66.3,15.6,62.5,1.4,50,1.4S33.7,15.6,33,26.8
			c-7.1,1-13.7,2.5-19.4,4.6c-4.8,1.8-8.9,4-12.1,6.5l2.3,13.6l0.5,2.7c0,7.3,12.2,13.6,29.4,16c0.1-0.8,0.4-1.5,0.8-2.3
			c0.2,0.4,0.3,0.8,0.5,1.1c-1.5,3.8,1.2,7.2,5,7.2c0.1,0,0.2,0,0.4,0c0.6,0.5,1.2,1,1.9,1.4c2.3,1.5,4.9,2.2,7.8,2.2
			c2.8,0,5.4-0.8,7.8-2.2c0.6-0.4,1.3-0.9,1.9-1.4c0.1,0,0.2,0,0.4,0c3.8,0,6.5-3.4,5-7.2c0.2-0.4,0.4-0.7,0.5-1.1
			c0.4,0.7,0.6,1.5,0.8,2.3c17.2-2.5,29.4-8.7,29.4-16l0.5-2.7L98.5,38C95.3,35.5,91.2,33.3,86.4,31.5z"/>
	</g>
</g>
<g>
	<g>
		<g>
			<path class="st1" d="M50,81.7c-3.1,0-5.9-0.8-8.5-2.5c-0.5-0.3-1.1-0.7-1.6-1.2c-2.3,0-4.4-1.1-5.6-2.9c-0.7-1-1-2.1-1.1-3.2
				c-8.6-1.3-15.9-3.4-21.3-6.3c-5.8-3.1-9-6.9-9-11L0,37.6l0.7-0.5c3.3-2.6,7.5-4.9,12.5-6.8c5.4-2,11.6-3.6,18.5-4.6
				c0.4-4.8,1.5-11.2,4.2-16.3c3.2-6.1,8-9.3,14.2-9.3s10.9,3.1,14.2,9.3c2.7,5.2,3.8,11.5,4.2,16.3c6.9,1,13.1,2.5,18.5,4.6l0,0
				c5,1.9,9.2,4.1,12.5,6.8l0.7,0.5l-2.8,17c-0.1,4.1-3.2,7.8-9,11c-5.4,2.9-12.7,5-21.3,6.3c-0.1,1.1-0.4,2.2-1.1,3.2
				c-1.2,1.8-3.3,2.9-5.6,2.9c-0.5,0.4-1.1,0.8-1.6,1.2C55.9,80.8,53.1,81.7,50,81.7z M40.8,75.1l0.5,0.4c0.6,0.5,1.1,0.9,1.7,1.3
				c2.1,1.3,4.5,2,7,2s4.9-0.7,7-2c0.6-0.4,1.1-0.8,1.7-1.3l0.5-0.4l0.6,0c0.1,0,0.2,0,0.3,0c1.4,0,2.7-0.6,3.4-1.7
				c0.7-1,0.8-2.3,0.3-3.6l-0.2-0.6l0.3-0.6c0.2-0.3,0.3-0.7,0.5-1.1l1.2-2.7l1.4,2.6c0.2,0.4,0.4,0.9,0.6,1.3
				c15.9-2.5,26.9-8.4,26.9-14.4v-0.1l2.6-15.6c-3-2.2-6.7-4.2-11-5.8l0,0c-5.5-2.1-11.9-3.6-19-4.6l-1.2-0.2l-0.1-1.2
				C64.2,6.2,55.2,3,50,3S35.8,6.2,34.4,27.1l-0.1,1.2l-1.2,0.2c-7.1,1-13.5,2.5-19,4.6c-4.4,1.6-8.1,3.6-11,5.8l2.6,15.6v0.1
				c0,6.1,11,11.9,26.9,14.4c0.2-0.4,0.3-0.9,0.6-1.3l1.4-2.6l1.2,2.7c0.2,0.4,0.3,0.7,0.5,1.1l0.3,0.6l-0.2,0.6
				c-0.5,1.3-0.4,2.6,0.3,3.6c0.7,1.1,2,1.7,3.4,1.7c0.1,0,0.2,0,0.3,0L40.8,75.1z"/>
		</g>
		<g>
			<path class="st1" d="M86.4,31.7C80.7,29.6,74.1,28,67,27C66.3,15.8,62.5,1.6,50,1.6S33.7,15.8,33,27c-7.1,1-13.7,2.5-19.4,4.6
				c-4.8,1.8-8.9,4-12.1,6.5l2.3,13.6l0.5,2.7c0,7.3,12.2,13.6,29.4,16c0.1-0.8,0.4-1.5,0.8-2.3c0.2,0.4,0.3,0.8,0.5,1.1
				c-1.5,3.8,1.2,7.2,5,7.2c0.1,0,0.2,0,0.4,0c0.6,0.5,1.2,1,1.9,1.4c2.3,1.5,4.9,2.2,7.8,2.2c2.8,0,5.4-0.8,7.8-2.2
				c0.6-0.4,1.3-0.9,1.9-1.4c0.1,0,0.2,0,0.4,0c3.8,0,6.5-3.4,5-7.2c0.2-0.4,0.4-0.7,0.5-1.1c0.4,0.7,0.6,1.5,0.8,2.3
				c17.2-2.5,29.4-8.7,29.4-16l0.5-2.7l2.3-13.6C95.3,35.7,91.2,33.5,86.4,31.7z"/>
		</g>
	</g>
	<g>
		<path class="st2" d="M50,70.9c5.7,0,5.7,5.7,10,5.7s7.1-4.3,4.3-8.6c0,0,0,4.3-2.9,4.3c-2.9,0,0-8.6-11.4-8.6s-8.6,8.6-11.4,8.6
			c-2.9,0-2.9-4.3-2.9-4.3c-2.9,4.3,0,8.6,4.3,8.6S44.3,70.9,50,70.9z"/>
	</g>
	<g>
		<g>
			<path class="st3" d="M50,37.3C24.7,37.3,4.3,45,4.3,54.5c0,7.3,12.2,13.6,29.4,16c0.1-0.8,0.4-1.5,0.8-2.3
				c-0.6-1.3-1.1-2.6-1.5-4c-1.6-1.3-2.6-3.4-2.6-5.6c0-1.2,0.3-2.3,0.8-3.3c0,0,0,0,0,0c-0.1-0.3-0.1-0.6-0.1-0.9
				c0-3.9,8.5-7.1,19.1-7.1s19.1,3.2,19.1,7.1c0,0.3-0.1,0.6-0.1,0.9c0,0,0,0,0,0c0.5,1,0.8,2.1,0.8,3.3c0,2.3-1,4.3-2.6,5.6
				c-0.4,1.4-0.9,2.7-1.5,4c0.4,0.7,0.6,1.5,0.8,2.3c17.2-2.5,29.4-8.7,29.4-16C95.7,45,75.3,37.3,50,37.3z"/>
		</g>
	</g>
	<g>
		<path class="st4" d="M3.8,51.8C7.1,43,26.2,36.4,50,36.4c23.8,0,42.9,6.6,46.2,15.4l2.3-13.6c-3.2-2.5-7.3-4.7-12.1-6.5
			C76.5,28,63.6,25.9,50,25.9s-26.5,2-36.4,5.8c-4.8,1.8-8.9,4-12.1,6.5L3.8,51.8z"/>
	</g>
	<g>
		<defs>
			<path id="SVGID_1_" d="M7.1,54.5H1.5V20.2h5.6V54.5z M24.3,20.2h-8.6v34.3h8.6V20.2z M41.4,20.2h-8.6v34.3h8.6V20.2z M58.6,20.2
				H50v34.3h8.6V20.2z M75.7,20.2h-8.6v34.3h8.6V20.2z M92.9,20.2h-8.6v34.3h8.6V20.2z"/>
		</defs>
		<clipPath id="SVGID_2_">
			<use xlink:href="#SVGID_1_"  style="overflow:visible;"/>
		</clipPath>
		<g class="st5">
			<path class="st6" d="M3.8,51.8C7.1,43,26.2,36.4,50,36.4c23.8,0,42.9,6.6,46.2,15.4l2.3-13.6c-3.2-2.5-7.3-4.7-12.1-6.5
				C76.5,28,63.6,25.9,50,25.9s-26.5,2-36.4,5.8c-4.8,1.8-8.9,4-12.1,6.5L3.8,51.8z"/>
		</g>
	</g>
	<g>
		<defs>
			<path id="SVGID_3_" d="M3.8,51.8C7.1,43,26.2,36.4,50,36.4c23.8,0,42.9,6.6,46.2,15.4l2.3-13.6c-3.2-2.5-7.3-4.7-12.1-6.5
				C76.5,28,63.6,25.9,50,25.9s-26.5,2-36.4,5.8c-4.8,1.8-8.9,4-12.1,6.5L3.8,51.8z"/>
		</defs>
		<clipPath id="SVGID_4_">
			<use xlink:href="#SVGID_3_"  style="overflow:visible;"/>
		</clipPath>
		<g class="st7">
			<g>
				<circle class="st4" cx="2.8" cy="44" r="1.6"/>
			</g>
			<g>
				<circle class="st6" cx="11.4" cy="38.3" r="1.6"/>
			</g>
			<g>
				<circle class="st4" cx="20" cy="35.1" r="1.6"/>
			</g>
			<g>
				<circle class="st6" cx="28.6" cy="33" r="1.6"/>
			</g>
			<g>
				<circle class="st4" cx="37.1" cy="31.8" r="1.6"/>
			</g>
			<g>
				<circle class="st6" cx="45.7" cy="31.2" r="1.6"/>
			</g>
			<g>
				<circle class="st4" cx="54.3" cy="31.2" r="1.6"/>
			</g>
			<g>
				<circle class="st6" cx="62.9" cy="31.8" r="1.6"/>
			</g>
			<g>
				<circle class="st4" cx="71.4" cy="33" r="1.6"/>
			</g>
			<g>
				<circle class="st6" cx="80" cy="35.1" r="1.6"/>
			</g>
			<g>
				<circle class="st4" cx="88.6" cy="38.3" r="1.6"/>
			</g>
			<g>
				<circle class="st6" cx="97.2" cy="44" r="1.6"/>
			</g>
		</g>
	</g>
	<g>
		<defs>
			<path id="SVGID_5_" d="M3.8,51.8C7.1,43,26.2,36.4,50,36.4c23.8,0,42.9,6.6,46.2,15.4l2.3-13.6c-3.2-2.5-7.3-4.7-12.1-6.5
				C76.5,28,63.6,25.9,50,25.9s-26.5,2-36.4,5.8c-4.8,1.8-8.9,4-12.1,6.5L3.8,51.8z"/>
		</defs>
		<clipPath id="SVGID_6_">
			<use xlink:href="#SVGID_5_"  style="overflow:visible;"/>
		</clipPath>
		<g class="st8">
			<path class="st4" d="M98.6,39.5l-0.7-0.6c-3.1-2.5-7.1-4.6-11.8-6.4c-9.8-3.7-22.6-5.7-36-5.7c-13.4,0-26.2,2-36,5.7
				c-4.7,1.8-8.7,3.9-11.8,6.4l-0.7,0.6L0.2,38L1,37.5c3.3-2.6,7.4-4.8,12.4-6.7C23.3,27,36.3,25,50,25s26.7,2.1,36.7,5.8
				c4.9,1.8,9.1,4.1,12.4,6.7l0.7,0.6L98.6,39.5z"/>
		</g>
		<g class="st8">
			<path class="st4" d="M95.6,53l-0.3-0.9c-1.5-4-6.8-7.7-14.8-10.4c-8.3-2.8-19.1-4.3-30.5-4.3s-22.2,1.5-30.5,4.3
				c-8.1,2.7-13.3,6.4-14.8,10.4L4.4,53l-1.8-0.7l0.3-0.9c1.7-4.6,7.3-8.6,16-11.6c8.5-2.9,19.5-4.4,31.1-4.4
				c11.5,0,22.6,1.6,31.1,4.4c8.7,2.9,14.3,6.9,16,11.6l0.3,0.9L95.6,53z"/>
		</g>
	</g>
	<g>
		<defs>
			<path id="SVGID_7_" d="M50,25.9c5.8,0,11.6,0.4,17,1.1l0,0C66.3,15.8,62.5,1.6,50,1.6S33.7,15.8,33,27
				C38.4,26.3,44.2,25.9,50,25.9z"/>
		</defs>
		<clipPath id="SVGID_8_">
			<use xlink:href="#SVGID_7_"  style="overflow:visible;"/>
		</clipPath>
		<g class="st9">
			<path class="st6" d="M50,107.4c-16.6,0-32.2-2.5-44.9-7.3c-8.3-3.1-15.4-7.2-21-12.2C-25.9,79-31.5,67.1-31.5,54.5
				s5.5-24.5,15.6-33.4c5.6-5,12.6-9.1,21-12.2C17.8,4.1,33.4,1.6,50,1.6s32.2,2.5,44.9,7.3c8.3,3.1,15.4,7.2,21,12.2
				c10.1,8.9,15.6,20.8,15.6,33.4s-5.5,24.5-15.6,33.4c-5.6,5-12.6,9.1-21,12.2C82.2,104.9,66.6,107.4,50,107.4z"/>
		</g>
		<g class="st9">
			<path class="st3" d="M50,101.7c-16,0-30.8-2.4-42.9-6.9c-29.7-11.1-32.9-31.8-32.9-40.2s3.2-29.1,32.9-40.2
				C19.2,9.7,34,7.3,50,7.3s30.8,2.4,42.9,6.9c29.7,11.1,32.9,31.8,32.9,40.2s-3.2,29.1-32.9,40.2C80.8,99.3,66,101.7,50,101.7z"/>
			<path class="st4" d="M50,102.1c-16,0-30.9-2.4-43-7C-23,83.9-26.2,63-26.2,54.5S-23,25.1,7,13.8c12.2-4.6,27-7,43-7
				c16,0,30.9,2.4,43,7C123,25.1,126.2,46,126.2,54.5S123,83.9,93,95.2C80.9,99.7,66,102.1,50,102.1z M50,7.8
				c-15.9,0-30.7,2.4-42.7,6.9c-29.4,11-32.6,31.5-32.6,39.8s3.2,28.8,32.6,39.8c12,4.5,26.8,6.9,42.7,6.9s30.7-2.4,42.7-6.9
				c29.4-11,32.6-31.5,32.6-39.8s-3.2-28.8-32.6-39.8C80.7,10.2,65.9,7.8,50,7.8z"/>
		</g>
		<g class="st9">
			<path class="st6" d="M50,93.1c-14.7,0-28.9-2.3-39.9-6.4C3.5,84.2-2.1,81-6.4,77.2c-7-6.2-10.8-14.2-10.8-22.7S-13.3,38-6.4,31.8
				c4.3-3.8,9.8-7,16.5-9.5c11-4.1,25.1-6.4,39.9-6.4s28.9,2.3,39.9,6.4c6.7,2.5,12.2,5.7,16.5,9.5c7,6.2,10.8,14.2,10.8,22.7
				s-3.8,16.5-10.8,22.7c-4.3,3.8-9.8,7-16.5,9.5C78.9,90.8,64.7,93.1,50,93.1z"/>
			<path class="st4" d="M50,93.6c-14.8,0-29-2.3-40-6.4c-6.7-2.5-12.3-5.7-16.6-9.6c-7.1-6.3-11-14.5-11-23.1s3.9-16.8,11-23.1
				c4.3-3.8,9.9-7.1,16.6-9.6c11-4.1,25.3-6.4,40-6.4c14.8,0,29,2.3,40,6.4c6.7,2.5,12.3,5.7,16.6,9.6c7.1,6.3,11,14.5,11,23.1
				s-3.9,16.8-11,23.1c-4.3,3.8-9.9,7.1-16.6,9.6C79,91.3,64.8,93.6,50,93.6z M50,16.4c-14.7,0-28.8,2.3-39.7,6.4
				C3.7,25.2-1.8,28.4-6,32.1c-6.9,6.1-10.6,14-10.6,22.4S-12.9,70.8-6,76.9c4.2,3.8,9.7,6.9,16.3,9.4c10.9,4.1,25,6.4,39.7,6.4
				c14.7,0,28.8-2.3,39.7-6.4c6.6-2.5,12.1-5.6,16.3-9.4c6.9-6.1,10.6-14,10.6-22.4s-3.8-16.3-10.6-22.4c-4.2-3.8-9.7-6.9-16.3-9.4
				C78.8,18.6,64.7,16.4,50,16.4z"/>
		</g>
	</g>
</g>
</svg>
