<?xml version="1.0" encoding="utf-8"?>
<!-- Generator: Adobe Illustrator 22.1.0, SVG Export Plug-In . SVG Version: 6.00 Build 0)  -->
<svg version="1.1" id="Layer_1" xmlns="http://www.w3.org/2000/svg" xmlns:xlink="http://www.w3.org/1999/xlink" x="0px" y="0px"
	 viewBox="0 0 100 81.5" style="enable-background:new 0 0 100 81.5;" xml:space="preserve">
<style type="text/css">
	.st0{fill:none;}
	.st1{fill:#231F20;}
</style>
<g>
	<g>
		<path class="st0" d="M50,81.5c-3.1,0-5.9-0.8-8.5-2.5c-0.5-0.3-1.1-0.7-1.6-1.2c-2.3,0-4.4-1.1-5.6-2.9c-0.7-1-1-2.1-1.1-3.2
			c-8.6-1.3-15.9-3.4-21.3-6.3c-5.8-3.1-9-6.9-9-11L0,37.4l0.7-0.5C4,34.3,8.2,32,13.1,30.1c5.4-2,11.6-3.6,18.5-4.6
			c0.4-4.8,1.5-11.2,4.2-16.3C39.1,3.1,43.8,0,50,0s10.9,3.1,14.2,9.3c2.7,5.2,3.8,11.5,4.2,16.3c6.9,1,13.1,2.5,18.5,4.6l0,0
			c5,1.9,9.2,4.1,12.5,6.8l0.7,0.5l-2.8,17c-0.1,4.1-3.2,7.8-9,11c-5.4,2.9-12.7,5-21.3,6.3c-0.1,1.1-0.4,2.2-1.1,3.2
			c-1.2,1.8-3.3,2.9-5.6,2.9c-0.5,0.4-1.1,0.8-1.6,1.2C55.9,80.6,53.1,81.5,50,81.5z M40.8,74.9l0.5,0.4c0.6,0.5,1.1,0.9,1.7,1.3
			c2.1,1.3,4.5,2,7,2s4.9-0.7,7-2c0.6-0.4,1.1-0.8,1.7-1.3l0.5-0.4l0.6,0c0.1,0,0.2,0,0.3,0c1.4,0,2.7-0.6,3.4-1.7
			c0.7-1,0.8-2.3,0.3-3.6l-0.2-0.6l0.3-0.6c0.2-0.3,0.3-0.7,0.5-1.1l1.2-2.7l1.4,2.6c0.2,0.4,0.4,0.9,0.6,1.3
			c15.9-2.5,26.9-8.4,26.9-14.4v-0.1l2.6-15.6c-3-2.2-6.7-4.2-11-5.8l0,0c-5.5-2.1-11.9-3.6-19-4.6l-1.2-0.2l-0.1-1.2
			C64.2,6,55.2,2.9,50,2.9S35.8,6,34.4,26.9l-0.1,1.2l-1.2,0.2c-7.1,1-13.5,2.5-19,4.6c-4.4,1.6-8.1,3.6-11,5.8l2.6,15.6v0.1
			c0,6.1,11,11.9,26.9,14.4c0.2-0.4,0.3-0.9,0.6-1.3l1.4-2.6l1.2,2.7c0.2,0.4,0.3,0.7,0.5,1.1l0.3,0.6l-0.2,0.6
			c-0.5,1.3-0.4,2.6,0.3,3.6c0.7,1.1,2,1.7,3.4,1.7c0.1,0,0.2,0,0.3,0L40.8,74.9z"/>
	</g>
	<g>
		<path class="st0" d="M86.4,31.5c-5.6-2.1-12.2-3.7-19.4-4.6C66.3,15.6,62.5,1.4,50,1.4S33.7,15.6,33,26.8
			c-7.1,1-13.7,2.5-19.4,4.6c-4.8,1.8-8.9,4-12.1,6.5l2.3,13.6l0.5,2.7c0,7.3,12.2,13.6,29.4,16c0.1-0.8,0.4-1.5,0.8-2.3
			c0.2,0.4,0.3,0.8,0.5,1.1c-1.5,3.8,1.2,7.2,5,7.2c0.1,0,0.2,0,0.4,0c0.6,0.5,1.2,1,1.9,1.4c2.3,1.5,4.9,2.2,7.8,2.2
			c2.8,0,5.4-0.8,7.8-2.2c0.6-0.4,1.3-0.9,1.9-1.4c0.1,0,0.2,0,0.4,0c3.8,0,6.5-3.4,5-7.2c0.2-0.4,0.4-0.7,0.5-1.1
			c0.4,0.7,0.6,1.5,0.8,2.3c17.2-2.5,29.4-8.7,29.4-16l0.5-2.7L98.5,38C95.3,35.5,91.2,33.3,86.4,31.5z"/>
	</g>
</g>
<path class="st1" d="M40,76.4c-4.3,0-7.1-4.3-4.3-8.6c0,0,0,4.3,2.9,4.3c2.9,0,0-8.6,11.4-8.6s8.6,8.6,11.4,8.6s2.9-4.3,2.9-4.3
	c2.9,4.3,0,8.6-4.3,8.6s-4.3-5.7-10-5.7S44.3,76.4,40,76.4z M50,37.2c-25.3,0-45.7,7.7-45.7,17.2c0,7.3,12.2,13.6,29.4,16
	c0.1-0.8,0.4-1.5,0.8-2.3c-0.6-1.3-1.1-2.6-1.5-4c-1.6-1.3-2.6-3.4-2.6-5.6c0-1.2,0.3-2.3,0.8-3.3c0,0,0,0,0,0
	c-0.1-0.3-0.1-0.6-0.1-0.9c0-3.9,8.5-7.1,19.1-7.1s19.1,3.2,19.1,7.1c0,0.3-0.1,0.6-0.1,0.9c0,0,0,0,0,0c0.5,1,0.8,2.1,0.8,3.3
	c0,2.3-1,4.3-2.6,5.6c-0.4,1.4-0.9,2.7-1.5,4c0.4,0.7,0.6,1.5,0.8,2.3c17.2-2.5,29.4-8.7,29.4-16C95.7,44.8,75.3,37.2,50,37.2z
	 M62.9,33.2c0.9,0,1.6-0.7,1.6-1.6c0-0.9-0.7-1.6-1.6-1.6c-0.9,0-1.6,0.7-1.6,1.6C61.3,32.5,62,33.2,62.9,33.2z M13,38.1
	c0,0.9-0.7,1.6-1.6,1.6c-0.9,0-1.6-0.7-1.6-1.6s0.7-1.6,1.6-1.6C12.3,36.5,13,37.2,13,38.1z M27,32.9c0-0.9,0.7-1.6,1.6-1.6
	c0.9,0,1.6,0.7,1.6,1.6c0,0.9-0.7,1.6-1.6,1.6C27.7,34.4,27,33.7,27,32.9z M47.3,31c0,0.9-0.7,1.6-1.6,1.6c-0.9,0-1.6-0.7-1.6-1.6
	s0.7-1.6,1.6-1.6C46.6,29.5,47.3,30.2,47.3,31z M78.4,34.9c0-0.9,0.7-1.6,1.6-1.6c0.9,0,1.6,0.7,1.6,1.6c0,0.9-0.7,1.6-1.6,1.6
	C79.1,36.5,78.4,35.8,78.4,34.9z M89.8,32.9C89.7,32.9,89.7,32.9,89.8,32.9c-0.3-0.1-0.6-0.3-0.8-0.4c-0.1,0-0.1,0-0.2-0.1
	c-0.2-0.1-0.4-0.2-0.7-0.3c-0.1,0-0.2-0.1-0.4-0.1c-0.2-0.1-0.3-0.1-0.5-0.2c-0.3-0.1-0.6-0.2-0.9-0.3c-0.5-0.2-1.1-0.4-1.6-0.6
	c-4-1.4-8.5-2.5-13.2-3.4c-0.1,0-0.1,0-0.2,0c-0.7-0.1-1.3-0.2-2-0.3c-0.2,0-0.4-0.1-0.7-0.1c-0.5-0.1-1-0.2-1.6-0.2c0,0,0,0,0,0
	c-3.4-0.5-7-0.8-10.6-1c-0.1,0-0.2,0-0.3,0c-0.6,0-1.2-0.1-1.8-0.1c-0.3,0-0.5,0-0.8,0c-0.5,0-0.9,0-1.4,0c-0.8,0-1.5,0-2.3,0
	c-2.9,0-5.8,0.1-8.6,0.3v0c0,0,0,0,0,0c-0.7,0-1.5,0.1-2.2,0.2c0,0,0,0,0,0c-0.7,0.1-1.4,0.1-2.1,0.2c-0.1,0-0.2,0-0.3,0
	c-0.6,0.1-1.2,0.1-1.9,0.2c-0.7,0.1-1.4,0.2-2.1,0.3c-3.4,0.5-6.6,1.1-9.7,1.8c-0.3,0.1-0.6,0.1-0.9,0.2c-0.4,0.1-0.8,0.2-1.2,0.3
	c-0.4,0.1-0.8,0.2-1.2,0.3c-0.3,0.1-0.5,0.1-0.8,0.2c-0.5,0.1-0.9,0.3-1.4,0.4c-0.2,0.1-0.4,0.1-0.6,0.2c-0.5,0.2-1,0.3-1.4,0.5
	c-0.7,0.2-1.4,0.5-2.1,0.7c-2.4,0.9-4.5,1.9-6.5,2.9v0c0,0,0,0,0,0c-0.8,0.4-1.5,0.8-2.2,1.3c0,0,0,0,0,0c-0.2,0.1-0.5,0.3-0.7,0.4
	c0,0,0,0,0,0c-0.2,0.1-0.4,0.3-0.6,0.4c0,0,0,0-0.1,0c-0.2,0.1-0.4,0.3-0.6,0.4c0,0-0.1,0-0.1,0.1c-0.2,0.1-0.4,0.3-0.5,0.4
	c0,0-0.1,0.1-0.1,0.1C2,37.7,1.8,37.9,1.5,38l2.3,13.6C3.9,51.4,4,51.2,4,51.1c0,0,0-0.1,0.1-0.1c0.1-0.2,0.2-0.3,0.2-0.5
	c0,0,0,0,0,0c0.1-0.2,0.2-0.4,0.3-0.5c0,0,0-0.1,0.1-0.1c0.1-0.2,0.2-0.3,0.3-0.5c0,0,0,0,0,0c0.1-0.2,0.3-0.4,0.4-0.5v0
	c0,0,0,0,0,0c0,0,0,0,0,0c0.1-0.2,0.3-0.4,0.5-0.5c0,0,0,0,0,0c0.3-0.4,0.7-0.7,1.1-1.1c2.1-1.9,5-3.6,8.6-5.1
	c0.3-0.1,0.6-0.2,0.9-0.4c0,0,0.1,0,0.1,0c0.6-0.2,1.3-0.5,1.9-0.7c0,0,0.1,0,0.1,0c0.3-0.1,0.6-0.2,1-0.3c0,0,0,0,0.1,0
	c0.7-0.2,1.4-0.4,2.1-0.7c0,0,0.1,0,0.1,0c0.7-0.2,1.5-0.4,2.3-0.6c2.7-0.7,5.5-1.2,8.6-1.7c2.7-0.4,5.6-0.7,8.6-0.9
	c2.8-0.2,5.6-0.3,8.6-0.3c0.7,0,1.5,0,2.2,0c0,0,0,0,0,0c0.7,0,1.4,0,2.2,0.1c0,0,0,0,0,0c1.4,0,2.8,0.1,4.2,0.2
	c3,0.2,5.8,0.5,8.6,0.9c0.4,0.1,0.7,0.1,1.1,0.2c0,0,0,0,0,0c1.9,0.3,3.6,0.6,5.4,1c0,0,0.1,0,0.1,0c0.3,0.1,0.6,0.1,0.9,0.2
	c0,0,0.1,0,0.1,0c0.3,0.1,0.7,0.2,1,0.2v0c3.2,0.8,6,1.7,8.6,2.8c0.2,0.1,0.4,0.2,0.6,0.3c0,0,0,0,0,0c0.2,0.1,0.4,0.2,0.6,0.3
	c0,0,0,0,0.1,0c0.2,0.1,0.4,0.2,0.6,0.3c0,0,0.1,0,0.1,0c0.2,0.1,0.4,0.2,0.5,0.3c0,0,0.1,0,0.1,0c0.2,0.1,0.3,0.2,0.5,0.3
	c0,0,0.1,0,0.1,0c0.2,0.1,0.3,0.2,0.5,0.3c0,0,0.1,0,0.1,0c0.2,0.1,0.3,0.2,0.5,0.3c0,0,0.1,0,0.1,0c0.2,0.1,0.3,0.2,0.5,0.3
	c0,0,0,0,0.1,0c0.2,0.1,0.3,0.2,0.5,0.3c0,0,0,0,0.1,0c0.2,0.1,0.3,0.2,0.5,0.3c0,0,0,0,0.1,0c0.2,0.1,0.3,0.2,0.4,0.3c0,0,0,0,0,0
	c0.1,0.1,0.3,0.2,0.4,0.3c0,0,0,0,0,0c0.1,0.1,0.3,0.2,0.4,0.3c0,0,0,0,0,0c0.1,0.1,0.3,0.2,0.4,0.3c0,0,0,0,0,0
	c0.1,0.1,0.3,0.2,0.4,0.3c0,0,0,0,0,0c0.1,0.1,0.3,0.2,0.4,0.4v0c1.6,1.4,2.7,3,3.3,4.6L98.5,38C96,36.1,93.1,34.4,89.8,32.9z
	 M96.3,45.1l-0.6,3.6c-0.6-0.8-1.3-1.6-2.2-2.4c-0.1-0.1-0.3-0.2-0.4-0.4c-0.1-0.1-0.1-0.1-0.2-0.2V35.5c1.7,0.9,3.2,1.9,4.5,2.9
	l-0.6,3.9c-0.7,0.2-1.2,0.8-1.2,1.5C95.6,44.4,95.9,44.9,96.3,45.1z M90.2,38.1c0,0.9-0.7,1.6-1.6,1.6c-0.9,0-1.6-0.7-1.6-1.6
	c0-0.9,0.7-1.6,1.6-1.6C89.5,36.5,90.2,37.2,90.2,38.1z M71.4,34.4c-0.9,0-1.6-0.7-1.6-1.6c0-0.9,0.7-1.6,1.6-1.6
	c0.9,0,1.6,0.7,1.6,1.6C73,33.7,72.3,34.4,71.4,34.4z M84.3,40.9c-2.5-1-5.3-1.9-8.3-2.7c-0.1,0-0.2,0-0.2-0.1v-8.8
	c3,0.7,5.9,1.5,8.6,2.4V40.9z M52.7,31c0-0.9,0.7-1.6,1.6-1.6c0.9,0,1.6,0.7,1.6,1.6s-0.7,1.6-1.6,1.6C53.4,32.6,52.7,31.9,52.7,31z
	 M67.2,27.8v8.6c-2.7-0.4-5.6-0.7-8.5-0.9c0,0,0,0-0.1,0V27c2.9,0.2,5.7,0.5,8.4,0.8C67.1,27.8,67.1,27.8,67.2,27.8z M37.1,30
	c0.9,0,1.6,0.7,1.6,1.6c0,0.9-0.7,1.6-1.6,1.6c-0.9,0-1.6-0.7-1.6-1.6C35.5,30.7,36.3,30,37.1,30z M32.8,36.5c0,0-0.1,0-0.1,0
	c-2.9,0.4-5.8,1-8.4,1.7v-8.8c2.8-0.6,5.6-1.1,8.6-1.5V36.5z M20,36.5c-0.9,0-1.6-0.7-1.6-1.6c0-0.9,0.7-1.6,1.6-1.6
	c0.9,0,1.6,0.7,1.6,1.6C21.6,35.8,20.9,36.5,20,36.5z M15.7,40.9c-0.1,0-0.2,0.1-0.4,0.1c-3.4,1.4-6.1,3-8.2,4.7V35.5
	c0.2-0.1,0.3-0.2,0.4-0.2c1.9-1,4.1-2,6.4-2.9c0.5-0.2,1.1-0.4,1.7-0.6V40.9z M3.7,45.1l-0.5-2.9c0.7,0.2,1.2,0.8,1.2,1.5
	C4.4,44.4,4.1,44.9,3.7,45.1z M41.4,35.5V27c0,0,0,0,0,0l0,0c2.9-0.2,5.7-0.3,8.5-0.3v8.6C47.1,35.3,44.2,35.4,41.4,35.5z M67,26.8
	c-5.4-0.7-11.1-1.1-17-1.1c-5.8,0-11.6,0.4-17,1.1c0.2-3.2,0.7-6.5,1.5-9.8c0,0,0,0,0,0c0,0,0,0,0,0c0-0.2,0.1-0.3,0.1-0.5
	c0,0,0,0,0,0c0,0,0,0,0-0.1c0-0.1,0.1-0.3,0.1-0.4c0,0,0,0,0,0c0.1-0.2,0.1-0.4,0.2-0.6c0-0.1,0-0.1,0.1-0.2c0.1-0.4,0.2-0.7,0.3-1
	c0,0,0-0.1,0-0.1c0.4-1.2,0.8-2.3,1.4-3.4c0-0.1,0.1-0.2,0.1-0.3c0.1-0.3,0.3-0.5,0.4-0.8c0.1-0.1,0.1-0.2,0.2-0.3
	c0.1-0.2,0.2-0.4,0.4-0.7c0.1-0.1,0.1-0.2,0.2-0.3c0.1-0.1,0.1-0.2,0.2-0.3c0,0,0,0,0,0c0.1-0.1,0.1-0.2,0.2-0.2
	c0.1-0.1,0.1-0.2,0.2-0.3c0,0,0,0,0,0c0.1-0.2,0.2-0.3,0.4-0.5c0,0,0,0,0,0C41.5,3.7,45,1.4,50,1.4C62.5,1.4,66.3,15.6,67,26.8z
	 M40.2,7c3.2-0.2,6.5-0.3,9.8-0.3s6.6,0.1,9.8,0.3C57.3,3.9,54,2.4,50,2.4S42.7,3.9,40.2,7z M50,24.8c5.4,0,10.8,0.3,16,1
	c-0.2-2.6-0.6-5.7-1.4-8.8c-4.7-0.5-9.6-0.8-14.5-0.8s-9.8,0.3-14.5,0.8c-0.8,3.1-1.2,6.2-1.4,8.8C39.2,25.1,44.6,24.8,50,24.8z"/>
</svg>
