<?xml version="1.0" encoding="utf-8"?>
<!-- Generator: Adobe Illustrator 22.1.0, SVG Export Plug-In . SVG Version: 6.00 Build 0)  -->
<svg version="1.1" id="Layer_1" xmlns="http://www.w3.org/2000/svg" xmlns:xlink="http://www.w3.org/1999/xlink" x="0px" y="0px"
	 viewBox="0 0 100 100" style="enable-background:new 0 0 100 100;" xml:space="preserve">
<style type="text/css">
	.st0{fill:#231F20;}
</style>
<path class="st0" d="M0,0v100h100V0H0z M74.9,37.3c0,0.5,0,1.1,0,1.7c0,16.9-12.9,36.5-36.5,36.5c-7.2,0-14-2.1-19.7-5.8
	c1,0.1,2,0.2,3.1,0.2c6,0,11.5-2,15.9-5.5c-5.6-0.1-10.3-3.8-12-8.9c0.8,0.1,1.6,0.2,2.4,0.2c1.2,0,2.3-0.2,3.4-0.5
	c-5.9-1.2-10.3-6.4-10.3-12.6c0-0.1,0-0.1,0-0.2c1.7,1,3.7,1.5,5.8,1.6c-3.4-2.3-5.7-6.2-5.7-10.7c0-2.3,0.6-4.6,1.7-6.4
	c6.3,7.8,15.8,12.9,26.4,13.4c-0.2-0.9-0.3-1.9-0.3-2.9c0-7.1,5.7-12.8,12.8-12.8c3.7,0,7,1.6,9.4,4.1c2.9-0.6,5.7-1.6,8.1-3.1
	c-1,3-3,5.5-5.6,7.1c2.6-0.3,5.1-1,7.4-2C79.5,33.2,77.4,35.4,74.9,37.3z"/>
</svg>
